<svg width="20" height="20" viewBox="0 0 20 20" fill="none" xmlns="http://www.w3.org/2000/svg">
    <path d="M9.99341 5.43637V2.49831C9.99341 2.27744 10.0811 2.06562 10.2373 1.90944C10.3935 1.75327 10.6053 1.66553 10.8262 1.66553" fill="white"/>
    <path d="M9.99341 5.43637V2.49831C9.99341 2.27744 10.0811 2.06562 10.2373 1.90944C10.3935 1.75327 10.6053 1.66553 10.8262 1.66553" stroke="white" stroke-width="1.66557" stroke-linecap="round" stroke-linejoin="round"/>
    <path d="M15.1874 17.4885C17.2188 15.1913 18.3342 12.2271 18.3212 9.16065C18.3212 8.19609 18.042 7.25214 17.5173 6.44277C16.9926 5.63339 16.2449 4.99317 15.3644 4.5994C14.4838 4.20563 13.5081 4.07513 12.5551 4.22366C11.602 4.37219 10.7123 4.7934 9.99338 5.43645C9.27443 4.7934 8.38473 4.37219 7.43167 4.22366C6.47861 4.07513 5.50293 4.20563 4.6224 4.5994C3.74187 4.99317 2.99414 5.63339 2.46946 6.44277C1.94477 7.25214 1.66557 8.19609 1.66555 9.16065C1.66029 12.2257 2.7747 15.1872 4.79931 17.4885C5.17215 17.9056 5.67421 18.1855 6.22504 18.2833C6.77588 18.3812 7.34362 18.2913 7.8373 18.0281C8.50083 17.6741 9.24132 17.4889 9.99338 17.4889C10.7454 17.4889 11.4859 17.6741 12.1495 18.0281C12.6431 18.2913 13.2109 18.3812 13.7617 18.2833C14.3125 18.1855 14.8146 17.9056 15.1874 17.4885Z" fill="white" stroke="white" stroke-width="1.66557" stroke-linecap="round" stroke-linejoin="round"/>
</svg>
