<svg width="16" height="16" viewBox="0 0 16 16" fill="none" xmlns="http://www.w3.org/2000/svg">
    <g clip-path="url(#clip0_361_1157)">
        <path d="M14.5244 6.66228C14.8287 8.15549 14.6118 9.70789 13.91 11.0606C13.2083 12.4133 12.064 13.4845 10.668 14.0956C9.27197 14.7067 7.70866 14.8207 6.23875 14.4187C4.76883 14.0167 3.48116 13.1229 2.59047 11.8864C1.69979 10.6499 1.25992 9.14547 1.34422 7.6239C1.42853 6.10234 2.03191 4.65567 3.05375 3.52514C4.07559 2.3946 5.45412 1.64855 6.95945 1.41139C8.46478 1.17423 10.0059 1.46029 11.3259 2.22188" stroke="#14F195" stroke-width="1.33245" stroke-linecap="round" stroke-linejoin="round"/>
        <path d="M5.99603 7.3285L7.99471 9.32718L14.657 2.66492" stroke="#14F195" stroke-width="1.33245" stroke-linecap="round" stroke-linejoin="round"/>
    </g>
    <defs>
        <clipPath id="clip0_361_1157">
            <rect width="15.9894" height="15.9894" fill="white"/>
        </clipPath>
    </defs>
</svg>
