<svg width="16" height="16" viewBox="0 0 16 16" fill="none" xmlns="http://www.w3.org/2000/svg">
    <path d="M6.66211 7.32849V11.3259" stroke="#FF3B30" stroke-width="1.33245" stroke-linecap="round" stroke-linejoin="round"/>
    <path d="M9.32715 7.32849V11.3259" stroke="#FF3B30" stroke-width="1.33245" stroke-linecap="round" stroke-linejoin="round"/>
    <path d="M12.6582 3.99731V13.3245C12.6582 13.6779 12.5178 14.0168 12.268 14.2667C12.0181 14.5166 11.6792 14.6569 11.3258 14.6569H4.66351C4.31012 14.6569 3.9712 14.5166 3.72132 14.2667C3.47144 14.0168 3.33105 13.6779 3.33105 13.3245V3.99731" stroke="#FF3B30" stroke-width="1.33245" stroke-linecap="round" stroke-linejoin="round"/>
    <path d="M1.99854 3.99731H13.9906" stroke="#FF3B30" stroke-width="1.33245" stroke-linecap="round" stroke-linejoin="round"/>
    <path d="M5.32959 3.9973V2.66485C5.32959 2.31146 5.46997 1.97255 5.71986 1.72266C5.96974 1.47278 6.30865 1.3324 6.66204 1.3324H9.32695C9.68034 1.3324 10.0193 1.47278 10.2691 1.72266C10.519 1.97255 10.6594 2.31146 10.6594 2.66485V3.9973" stroke="#FF3B30" stroke-width="1.33245" stroke-linecap="round" stroke-linejoin="round"/>
</svg>
