<svg width="20" height="20" viewBox="0 0 20 20" fill="none" xmlns="http://www.w3.org/2000/svg">
    <g clip-path="url(#clip0_32_145)">
        <path d="M19.7924 10.2225C19.7924 9.5453 19.7371 8.86138 19.6197 8.18994H10.1935V12.0413H15.5911C15.367 13.2824 14.6566 14.3803 13.6139 15.0776V17.5751H16.8275C18.7025 15.8344 19.7924 13.264 19.7924 10.2225Z" fill="#4285F4"/>
        <path d="M10.1935 19.9874C12.944 19.9874 15.2627 19.0922 16.8308 17.5756L13.6172 15.078C12.7291 15.6876 11.5672 16.0328 10.1968 16.0328C7.53461 16.0328 5.27999 14.2739 4.50021 11.9027H1.17896V14.4726C2.77555 17.6411 6.31123 19.9874 10.1935 19.9874Z" fill="#34A853"/>
        <path d="M4.49708 11.9025C4.02988 10.6614 4.02988 9.32606 4.49708 8.08502V5.51514H1.17893C-0.397533 8.65212 -0.397533 12.3347 1.17893 15.4718L4.49708 11.9025Z" fill="#FBBC04"/>
        <path d="M10.1935 3.95519C11.6435 3.93333 13.0453 4.46892 14.1033 5.45577L16.9561 2.60296C15.176 0.989963 12.7267 0.0733813 10.1935 0.0999263C6.31123 0.0999263 2.77555 2.44619 1.17896 5.61503L4.4971 8.18489C5.27377 5.81053 7.5315 3.95519 10.1935 3.95519Z" fill="#EA4335"/>
    </g>
    <defs>
        <clipPath id="clip0_32_145">
            <rect width="19.9868" height="19.9868" fill="white"/>
        </clipPath>
    </defs>
</svg>
