<svg width="22" height="22" viewBox="0 0 22 22" fill="none" xmlns="http://www.w3.org/2000/svg">
    <g clip-path="url(#clip0_427_82)">
        <path d="M13.7468 19.2457V11.914C13.7468 11.671 13.6503 11.4379 13.4784 11.266C13.3065 11.0941 13.0734 10.9976 12.8303 10.9976H9.16451C8.92145 10.9976 8.68834 11.0941 8.51647 11.266C8.3446 11.4379 8.24805 11.671 8.24805 11.914V19.2457" stroke="#99A1AF" stroke-width="2.29115" stroke-linecap="round" stroke-linejoin="round"/>
        <path d="M2.74951 9.16464C2.74945 8.89801 2.80755 8.63458 2.91978 8.39272C3.032 8.15086 3.19564 7.9364 3.39928 7.76429L9.8145 2.26553C10.1453 1.98592 10.5645 1.83252 10.9977 1.83252C11.4308 1.83252 11.85 1.98592 12.1808 2.26553L18.596 7.76429C18.7997 7.9364 18.9633 8.15086 19.0755 8.39272C19.1877 8.63458 19.2459 8.89801 19.2458 9.16464V17.4128C19.2458 17.8989 19.0527 18.3651 18.7089 18.7088C18.3652 19.0526 17.899 19.2457 17.4129 19.2457H4.58243C4.09631 19.2457 3.6301 19.0526 3.28636 18.7088C2.94262 18.3651 2.74951 17.8989 2.74951 17.4128V9.16464Z" stroke="#99A1AF" stroke-width="2.29115" stroke-linecap="round" stroke-linejoin="round"/>
    </g>
    <defs>
        <clipPath id="clip0_427_82">
            <rect width="21.995" height="21.995" fill="white"/>
        </clipPath>
    </defs>
</svg>
