<svg width="36" height="36" viewBox="0 0 36 36" fill="none" xmlns="http://www.w3.org/2000/svg">
    <path fill-rule="evenodd" clip-rule="evenodd" d="M26.0518 22.8069L28.4763 25.2313L25.2316 28.476L22.8071 26.0516C23.4634 25.6688 24.0649 25.1949 24.63 24.6298C25.1951 24.0647 25.669 23.4631 26.0518 22.8069Z" fill="#9945FF"/>
    <path fill-rule="evenodd" clip-rule="evenodd" d="M25.2314 28.476L28.4762 25.2313L35.3302 32.0853C36.2234 32.9785 36.2234 34.4369 35.3302 35.3301C34.437 36.2233 32.9787 36.2233 32.0855 35.3301L25.2314 28.476Z" fill="#9945FF"/>
    <path fill-rule="evenodd" clip-rule="evenodd" d="M28.0206 24.7756L28.4763 25.2314L25.2316 28.4761L24.7759 28.0204L28.0206 24.7756ZM25.2316 28.4761L28.4763 25.2314L28.9503 25.7053L25.7055 28.95L25.2316 28.4761Z" fill="#813BD6"/>
    <path d="M25.0442 25.0443C29.6547 20.4337 29.6547 12.9586 25.0442 8.34808C20.4337 3.73756 12.9586 3.73756 8.34808 8.34808C3.73756 12.9586 3.73756 20.4337 8.34808 25.0443C12.9586 29.6548 20.4337 29.6548 25.0442 25.0443Z" fill="#9945FF"/>
    <path d="M23.6263 23.6248C27.4561 19.7963 27.4572 13.588 23.6287 9.7582C19.8002 5.92838 13.592 5.92729 9.76214 9.75578C5.93232 13.5843 5.93124 19.7926 9.75972 23.6224C13.5882 27.4522 19.7965 27.4533 23.6263 23.6248Z" fill="#9945FF"/>
    <path d="M23.0727 23.0725C26.5981 19.5471 26.5981 13.8313 23.0727 10.3059C19.5473 6.78054 13.8315 6.78054 10.3061 10.3059C6.78074 13.8313 6.78074 19.5471 10.3061 23.0725C13.8315 26.5979 19.5473 26.5979 23.0727 23.0725Z" fill="#CEE2F2"/>
    <path fill-rule="evenodd" clip-rule="evenodd" d="M12.9088 13.7472C12.6536 14.0024 12.2344 14.0024 11.9609 13.7472C11.7057 13.4737 11.7057 13.0545 11.9609 12.7993C13.3281 11.4503 15.0963 10.7759 16.8645 10.7759C18.6327 10.7759 20.4191 11.4503 21.768 12.7993C22.0232 13.0545 22.0232 13.492 21.768 13.7472C21.5128 14.0024 21.0935 14.0024 20.8201 13.7472C19.7264 12.6534 18.3045 12.1066 16.8645 12.1066C15.4244 12.1066 14.0026 12.6534 12.9088 13.7472Z" fill="#FEFEFE"/>
</svg>
